HIERARCHY
ROOT root
{
	OFFSET	0	13.1	24.9
	CHANNELS 6  Xposition Yposition Zposition Xrotation Yrotation Zrotation
	JOINT spine_1
	{
		OFFSET	0	9.99999	0
		CHANNELS 3  Xrotation Yrotation Zrotation
		JOINT spine_2
		{
			OFFSET	0	112	-10
			CHANNELS 3  Xrotation Yrotation Zrotation
			JOINT spine_3
			{
				OFFSET	0	206.5	19.3
				CHANNELS 3  Xrotation Yrotation Zrotation
				JOINT spine_4
				{
					OFFSET	0	110.4	14.6
					CHANNELS 3  Xrotation Yrotation Zrotation
					JOINT neck_1
					{
						OFFSET	0	71.8	-50.3
						CHANNELS 3  Xrotation Yrotation Zrotation
						JOINT neck_2
						{
							OFFSET	0	86.2	-25.8
							CHANNELS 3  Xrotation Yrotation Zrotation
							JOINT head_ee
							{
								OFFSET	0	179.8	-8.7
								CHANNELS 3  Xrotation Yrotation Zrotation
								End Site
								{
									OFFSET	1	0	0
								}
							}
						}
					}
					JOINT left_clavicle
					{
						OFFSET	-43.2	22.4	-70.8
						CHANNELS 3  Xrotation Yrotation Zrotation
						JOINT left_shoulder
						{
							OFFSET	-93.9	-5.79999	48.7
							CHANNELS 3  Xrotation Yrotation Zrotation
							JOINT left_elbow
							{
								OFFSET	-291.4	-30.8	15.2
								CHANNELS 3  Xrotation Yrotation Zrotation
								JOINT left_lowarm_twist
								{
									OFFSET	-110.7	-3.89999	13.6
									CHANNELS 3  Xrotation Yrotation Zrotation
									JOINT left_hand
									{
										OFFSET	-110.7	-3.89999	13.6
										CHANNELS 3  Xrotation Yrotation Zrotation
										JOINT left_ee
										{
											OFFSET	-80.8	-5.10001	12.1
											CHANNELS 3  Xrotation Yrotation Zrotation
											End Site
											{
												OFFSET	1	0	0
											}
										}
									}
								}
							}
						}
					}
					JOINT right_clavicle
					{
						OFFSET	43.2	22.4	-70.8
						CHANNELS 3  Xrotation Yrotation Zrotation
						JOINT right_shoulder
						{
							OFFSET	93.9	-5.79999	48.7
							CHANNELS 3  Xrotation Yrotation Zrotation
							JOINT right_elbow
							{
								OFFSET	291.4	-30.8	15.2
								CHANNELS 3  Xrotation Yrotation Zrotation
								JOINT right_lowarm_twist
								{
									OFFSET	110.7	-3.89999	13.6
									CHANNELS 3  Xrotation Yrotation Zrotation
									JOINT right_hand
									{
										OFFSET	110.7	-3.89999	13.6
										CHANNELS 3  Xrotation Yrotation Zrotation
										JOINT right_ee
										{
											OFFSET	80.8	-5.10001	12.1
											CHANNELS 3  Xrotation Yrotation Zrotation
											End Site
											{
												OFFSET	1	0	0
											}
										}
									}
								}
							}
						}
					}
				}
			}
		}
	}
	JOINT left_hip
	{
		OFFSET	-82.8	-127.5	0.300001
		CHANNELS 3  Xrotation Yrotation Zrotation
		JOINT left_knee
		{
			OFFSET	-28.2	-396.7	2.2
			CHANNELS 3  Xrotation Yrotation Zrotation
			JOINT left_ankle
			{
				OFFSET	-11.7	-411.3	35.4
				CHANNELS 3  Xrotation Yrotation Zrotation
				JOINT left_toes
				{
					OFFSET	0	-60	-88.6
					CHANNELS 3  Xrotation Yrotation Zrotation
					JOINT left_foot_ee
					{
						OFFSET	-22.5	-16.5	-42.2
						CHANNELS 3  Xrotation Yrotation Zrotation
						End Site
						{
							OFFSET	1	0	0
						}
					}
				}
			}
		}
	}
	JOINT right_hip
	{
		OFFSET	82.8	-127.5	0.300001
		CHANNELS 3  Xrotation Yrotation Zrotation
		JOINT right_knee
		{
			OFFSET	28.2	-396.7	2.2
			CHANNELS 3  Xrotation Yrotation Zrotation
			JOINT right_ankle
			{
				OFFSET	11.7	-411.3	35.4
				CHANNELS 3  Xrotation Yrotation Zrotation
				JOINT right_toes
				{
					OFFSET	0	-60	-88.6
					CHANNELS 3  Xrotation Yrotation Zrotation
					JOINT right_foot_ee
					{
						OFFSET	22.5	-16.5	-42.2
						CHANNELS 3  Xrotation Yrotation Zrotation
						End Site
						{
							OFFSET	1	0	0
						}
					}
				}
			}
		}
	}
}
MOTION
Frames: 9
Frame Time: 0.02
3177.02 653.055 -1669.29 1.16082319666 21.3357312793 7.87660377412 -4.06417 -0.0125809 -0.876831 -4.06374 0.0432374 -0.875855 -4.06384 0.285848 -0.829028 -4.06477 0.151336 -0.863765 -0.653836 12.9716 8.99364 -0.348906 15.9514 11.0173 -0.0 0.0 -0.0 8.80795 11.7106 16.5021 -22.8053 -21.0283 60.8194 0.270605 -7.63515 0.018057 -4.34874 -0.173375 0.528017 9.77913 -17.7189 76.9973 -0.0 0.0 -0.0 11.2688 11.8503 -22.6189 -10.0181 49.9567 -32.3278 1.65225 39.2964 -0.589942 -27.7412 1.7515 -3.0487 -7.52736 -13.5375 47.4735 0.0 0.0 0.0 36.2319 13.1119 -20.1323 0.310137 -0.0128951 -0.0458458 -11.793 10.8426 1.7633 -18.6585 0.0 0.0 -0.0 0.0 -0.0 9.45344 39.7981 -23.1851 -35.3904 0.199847 -5.34228 37.4386 -15.2945 4.70012 -5.04008 0.0 0.0 0.0 0.0 0.0 
3086.99124254 647.502 -1742.61941296 3.47136761247 17.1313067181 7.41636794424 -3.87052 0.00837709 -1.33138 -3.86953 0.0930714 -1.32815 -3.87047 0.455701 -1.251 -3.87257 0.252428 -1.30726 0.988521 13.2453 7.57873 1.29414 17.1789 9.42811 -0.0 0.0 -0.0 9.99027 11.6081 18.6551 -22.7432 -22.4335 59.9728 0.284846 -8.03185 0.0199981 -5.60366 -0.23082 0.67783 9.71718 -17.1279 77.0781 -0.0 0.0 -0.0 10.4574 10.3607 -20.8338 -13.3797 47.1816 -35.6331 1.25656 31.8994 -0.359132 -27.4126 1.72246 -3.01817 -7.56256 -11.8922 49.5965 0.0 0.0 0.0 32.3057 14.0113 -19.8003 -10.8717 0.292744 1.64027 -11.4878 10.1887 1.71645 -17.0629 0.0 0.0 -0.0 0.0 -0.0 5.74829 39.9459 -21.4009 -38.4098 0.368713 -5.77438 34.5521 -16.9595 4.44074 -6.01417 0.0 0.0 0.0 0.0 0.0 
3086.73896433 647.502 -1742.3085906 3.47507889771 17.3284793807 7.40383857412 -3.87052 0.00837709 -1.33138 -3.86953 0.0930714 -1.32815 -3.87047 0.455701 -1.251 -3.87257 0.252428 -1.30726 0.988521 13.2453 7.57873 1.29414 17.1789 9.42811 -0.0 0.0 -0.0 9.99027 11.6081 18.6551 -22.7432 -22.4335 59.9728 0.284846 -8.03185 0.0199981 -5.60366 -0.23082 0.67783 9.71718 -17.1279 77.0781 -0.0 0.0 -0.0 10.4574 10.3607 -20.8338 -13.3797 47.1816 -35.6331 1.25656 31.8994 -0.359132 -27.4126 1.72246 -3.01817 -7.56256 -11.8922 49.5965 0.0 0.0 0.0 32.3057 14.0113 -19.8003 -10.8717 0.292744 1.64027 -11.4878 10.1887 1.71645 -17.0629 0.0 0.0 -0.0 0.0 -0.0 5.74829 39.9459 -21.4009 -38.4098 0.368713 -5.77438 34.5521 -16.9595 4.44074 -6.01417 0.0 0.0 0.0 0.0 0.0 
3058.97584133 653.566 -1771.02566821 4.4690295982 18.4933969535 7.28505923531 -3.88192 -0.0917448 -1.45488 -3.88074 0.00100872 -1.45777 -3.87914 0.403154 -1.40092 -3.88183 0.176869 -1.447 0.552393 12.7882 6.77429 0.82783 17.1465 8.5474 -0.0 0.0 -0.0 10.1799 12.077 18.944 -22.6031 -23.3374 58.7532 0.332223 -9.34579 0.0271556 -7.40829 -0.319162 0.891013 9.59045 -16.1662 76.5162 -0.0 0.0 -0.0 10.122 9.49519 -20.1059 -14.0184 46.3419 -38.2728 1.10229 28.6355 -0.281341 -27.1157 1.69638 -2.99046 -7.75345 -12.5174 50.9005 0.0 0.0 0.0 29.6088 12.166 -19.1942 -17.4803 0.317123 2.65338 -6.10499 9.94446 0.904954 -17.7743 0.0 0.0 -0.0 0.0 -0.0 4.35399 37.7493 -20.4248 -40.7134 0.512778 -6.09785 32.8086 -15.3477 4.23881 -5.96302 0.0 0.0 0.0 0.0 0.0 
3058.085081 653.566 -1769.98287276 4.48238292283 18.9961012165 7.24350614934 -3.88192 -0.0917448 -1.45488 -3.88074 0.00100872 -1.45777 -3.87914 0.403154 -1.40092 -3.88183 0.176869 -1.447 0.552393 12.7882 6.77429 0.82783 17.1465 8.5474 -0.0 0.0 -0.0 10.1799 12.077 18.944 -22.6031 -23.3374 58.7532 0.332223 -9.34579 0.0271556 -7.40829 -0.319162 0.891013 9.59045 -16.1662 76.5162 -0.0 0.0 -0.0 10.122 9.49519 -20.1059 -14.0184 46.3419 -38.2728 1.10229 28.6355 -0.281341 -27.1157 1.69638 -2.99046 -7.75345 -12.5174 50.9005 0.0 0.0 0.0 29.6088 12.166 -19.1942 -17.4803 0.317123 2.65338 -6.10499 9.94446 0.904954 -17.7743 0.0 0.0 -0.0 0.0 -0.0 4.35399 37.7493 -20.4248 -40.7134 0.512778 -6.09785 32.8086 -15.3477 4.23881 -5.96302 0.0 0.0 0.0 0.0 0.0 
3009.12612839 660.614 -1801.28304101 8.61813140427 22.853356165 -2.19505651985 -5.51701 0.209934 1.27997 -5.51611 0.128067 1.29074 -5.51139 -0.269216 1.26883 -5.51363 -0.0654671 1.29542 8.63878 11.1218 3.19647 8.95608 15.5946 3.96576 -0.0 0.0 -0.0 10.4762 1.6723 20.5388 -18.2694 -18.7488 53.9238 0.51653 -14.3527 0.0650368 -24.7599 -1.49463 2.76584 3.37478 21.5067 29.9733 -0.0 0.0 -0.0 10.584 14.3112 -21.0218 0.48831 26.4529 -52.8195 0.940487 24.9799 -0.208333 -40.0087 2.95209 -4.06128 -1.72866 13.7898 17.7536 0.0 0.0 0.0 21.9866 -6.04259 -3.61154 -25.2024 0.197731 3.8314 -4.36682 19.077 0.656083 -31.0592 0.0 0.0 -0.0 0.0 -0.0 -2.62478 25.2612 -1.70284 -50.5356 1.26914 -7.40431 34.2815 -17.3847 4.41977 37.7287 -0.0 -0.0 0.0 0.0 0.0 
3008.5326266 660.614 -1800.52459912 8.63456598494 23.1088035739 -2.23715026168 -5.51701 0.209934 1.27997 -5.51611 0.128067 1.29074 -5.51139 -0.269216 1.26883 -5.51363 -0.0654671 1.29542 8.63878 11.1218 3.19647 8.95608 15.5946 3.96576 -0.0 0.0 -0.0 10.4762 1.6723 20.5388 -18.2694 -18.7488 53.9238 0.51653 -14.3527 0.0650368 -24.7599 -1.49463 2.76584 3.37478 21.5067 29.9733 -0.0 0.0 -0.0 10.584 14.3112 -21.0218 0.48831 26.4529 -52.8195 0.940487 24.9799 -0.208333 -40.0087 2.95209 -4.06128 -1.72866 13.7898 17.7536 0.0 0.0 0.0 21.9866 -6.04259 -3.61154 -25.2024 0.197731 3.8314 -4.36682 19.077 0.656083 -31.0592 0.0 0.0 -0.0 0.0 -0.0 -2.62478 25.2612 -1.70284 -50.5356 1.26914 -7.40431 34.2815 -17.3847 4.41977 37.7287 -0.0 -0.0 0.0 0.0 0.0 
3008.20910543 660.614 -1800.10818251 8.64366456808 23.2486691043 -2.26026651781 -5.51701 0.209934 1.27997 -5.51611 0.128067 1.29074 -5.51139 -0.269216 1.26883 -5.51363 -0.0654671 1.29542 8.63878 11.1218 3.19647 8.95608 15.5946 3.96576 -0.0 0.0 -0.0 10.4762 1.6723 20.5388 -18.2694 -18.7488 53.9238 0.51653 -14.3527 0.0650368 -24.7599 -1.49463 2.76584 3.37478 21.5067 29.9733 -0.0 0.0 -0.0 10.584 14.3112 -21.0218 0.48831 26.4529 -52.8195 0.940487 24.9799 -0.208333 -40.0087 2.95209 -4.06128 -1.72866 13.7898 17.7536 0.0 0.0 0.0 21.9866 -6.04259 -3.61154 -25.2024 0.197731 3.8314 -4.36682 19.077 0.656083 -31.0592 0.0 0.0 -0.0 0.0 -0.0 -2.62478 25.2612 -1.70284 -50.5356 1.26914 -7.40431 34.2815 -17.3847 4.41977 37.7287 -0.0 -0.0 0.0 0.0 0.0 
3007.63020887 660.614 -1799.35772721 8.66019689004 23.500049767 -2.30193713474 -5.51701 0.209934 1.27997 -5.51611 0.128067 1.29074 -5.51139 -0.269216 1.26883 -5.51363 -0.0654671 1.29542 8.63878 11.1218 3.19647 8.95608 15.5946 3.96576 -0.0 0.0 -0.0 10.4762 1.6723 20.5388 -18.2694 -18.7488 53.9238 0.51653 -14.3527 0.0650368 -24.7599 -1.49463 2.76584 3.37478 21.5067 29.9733 -0.0 0.0 -0.0 10.584 14.3112 -21.0218 0.48831 26.4529 -52.8195 0.940487 24.9799 -0.208333 -40.0087 2.95209 -4.06128 -1.72866 13.7898 17.7536 0.0 0.0 0.0 21.9866 -6.04259 -3.61154 -25.2024 0.197731 3.8314 -4.36682 19.077 0.656083 -31.0592 0.0 0.0 -0.0 0.0 -0.0 -2.62478 25.2612 -1.70284 -50.5356 1.26914 -7.40431 34.2815 -17.3847 4.41977 37.7287 -0.0 -0.0 0.0 0.0 0.0 
